<?xml version="1.0" standalone="no"?>
<!DOCTYPE svg PUBLIC "-//W3C//DTD SVG 20010904//EN"
 "http://www.w3.org/TR/2001/REC-SVG-20010904/DTD/svg10.dtd">
<svg version="1.0" xmlns="http://www.w3.org/2000/svg"
 width="256.000000pt" height="256.000000pt" viewBox="0 0 256.000000 256.000000"
 preserveAspectRatio="xMidYMid meet">
<metadata>
Created by potrace 1.14, written by Peter Selinger 2001-2017
</metadata>
<g transform="translate(0.000000,256.000000) scale(0.100000,-0.100000)"
fill="#000000" stroke="none">
<path d="M135 2541 c-51 -23 -93 -65 -116 -116 -17 -38 -18 -96 -18 -1140 0
-883 2 -1107 13 -1137 18 -50 53 -92 101 -120 l40 -23 1116 -2 1115 -3 50 25
c55 29 90 69 110 123 11 30 13 256 13 1137 1 1055 0 1102 -18 1140 -23 48 -60
88 -104 112 -30 17 -104 18 -1147 20 -1065 3 -1117 2 -1155 -16z"/>
</g>
</svg>
