<svg xmlns="http://www.w3.org/2000/svg" width="221.588" height="85.041">
  <path d="M574.903 192.429h-16.617c-1.179 0-1.611.392-1.611 1.61v24.749c0 1.178.471 1.532 1.571 1.532h11.196c5.421 0 8.957-3.378 8.957-8.8 0-5.5-3.536-8.838-8.957-8.838h-6.364v-4.557h11.825c1.178 0 1.61-.432 1.61-1.61v-2.476c0-1.218-.432-1.61-1.61-1.61zm-3.104 19.091c0 1.847-1.178 3.104-3.26 3.104h-5.46v-6.246h5.46c2.082 0 3.26 1.257 3.26 3.142zm27.342-19.091h-15.792c-1.179 0-1.611.392-1.611 1.61v24.67c0 1.218.432 1.61 1.61 1.61h16.185c1.179 0 1.611-.392 1.611-1.61v-2.632c0-1.178-.432-1.61-1.61-1.61H588.14v-5.343h9.035c1.218 0 1.611-.393 1.611-1.61v-2.633c0-1.178-.393-1.571-1.61-1.571h-9.036v-5.067h11c1.217 0 1.61-.393 1.61-1.572v-2.632c0-1.218-.393-1.61-1.61-1.61zm26.123 0h-15.792c-1.218 0-1.61.392-1.61 1.61v8.407c0 9.664-2.515 11.431-4.479 12.453-1.1.55-1.296 1.1-.786 2.16l1.532 2.79c.472 1.1 1.022 1.296 2.122.785 4.125-2.003 7.857-5.343 7.857-18.228v-4.124h6.403v20.427c0 1.218.392 1.61 1.61 1.61h3.143c1.218 0 1.61-.392 1.61-1.61v-24.67c0-1.218-.392-1.61-1.61-1.61zm26.948 0h-1.728c-.786 0-1.021.274-1.021 1.021v10.96h-13.435v-10.96c0-.747-.276-1.021-1.061-1.021h-1.728c-.747 0-1.022.274-1.022 1.021v25.849c0 .746.275 1.02 1.021 1.02h1.729c.785 0 1.06-.274 1.06-1.02v-11.354h13.436v11.353c0 .747.235 1.022 1.021 1.022h1.728c.786 0 1.022-.275 1.022-1.022V193.45c0-.747-.236-1.021-1.022-1.021zm7.857 27.89h10.49c5.538 0 9.034-3.338 9.034-8.916 0-5.54-3.457-8.84-9.035-8.84h-7.7v-9.113c0-.747-.275-1.021-1.06-1.021h-1.729c-.746 0-1.021.274-1.021 1.021v25.849c0 .746.275 1.02 1.021 1.02zm2.79-14.22h7.346c3.378 0 5.42 1.925 5.42 5.304 0 3.378-2.042 5.382-5.42 5.382h-7.346zm30.798-4.242v2.553h-6.168v-10.96c0-.747-.275-1.021-1.06-1.021H684.7c-.747 0-1.021.274-1.021 1.021v25.849c0 .746.275 1.02 1.021 1.02h1.728c.786 0 1.061-.274 1.061-1.02v-11.354h6.168v2.947c0 6.167 3.77 10.017 10.763 10.017s10.764-3.85 10.764-10.017v-9.035c0-6.168-3.771-10.018-10.764-10.018-6.992 0-10.763 3.85-10.763 10.018zm17.717 0v9.035c0 4.125-2.436 6.481-6.954 6.481-4.517 0-6.953-2.356-6.953-6.481v-9.035c0-4.125 2.436-6.482 6.953-6.482 4.518 0 6.954 2.357 6.954 6.482zM566.031 229.454h-8.505c-.555 0-.734.179-.734.734v1.2c0 .537.179.716.734.716h2.81v9.329c0 .555.18.734.717.734h1.45c.556 0 .735-.18.735-.734v-9.33h2.793c.555 0 .734-.178.734-.715v-1.2c0-.555-.179-.734-.734-.734zm12.127 0h-7.198c-.537 0-.734.179-.734.734v11.245c0 .555.197.734.734.734h7.377c.537 0 .734-.18.734-.734v-1.2c0-.537-.197-.734-.734-.734h-5.193v-2.435h4.119c.555 0 .734-.18.734-.734v-1.2c0-.537-.18-.716-.734-.716h-4.119v-2.31h5.014c.555 0 .734-.18.734-.717v-1.2c0-.554-.18-.733-.734-.733zm14.968 11.979-3.796-5.766 3.617-5.515c.268-.358.143-.698-.34-.698h-1.72c-.77 0-.949.053-1.325.608l-1.984 3.313-2.006-3.313c-.376-.519-.555-.608-1.414-.608h-1.645c-.483 0-.609.34-.34.698l3.578 5.533-3.74 5.748c-.268.394-.16.734.359.734h1.609c.895 0 1.056-.072 1.432-.645l2.041-3.545 2.164 3.545c.358.61.555.645 1.432.645h1.72c.519 0 .644-.358.358-.734zm12.92-11.98h-1.45c-.555 0-.734.18-.734.735v4.208h-4.316v-4.208c0-.555-.197-.734-.734-.734h-1.45c-.537 0-.734.179-.734.734v11.245c0 .555.197.734.734.734h1.45c.537 0 .734-.18.734-.734v-4.37h4.316v4.37c0 .555.179.734.734.734h1.45c.537 0 .716-.18.716-.734v-11.245c0-.555-.179-.734-.716-.734zm4.714 4.549v3.617c0 2.972 1.898 4.817 5.282 4.817 3.402 0 5.3-1.845 5.3-4.817v-3.617c0-2.973-1.898-4.817-5.3-4.817-3.384 0-5.282 1.844-5.282 4.817zm7.664-.054v3.725c0 1.396-.86 2.095-2.382 2.095-1.504 0-2.363-.699-2.363-2.095v-3.725c0-1.396.86-2.095 2.363-2.095 1.522 0 2.382.699 2.382 2.095zm16.173-4.494H627.4c-.555 0-.734.179-.734.734v3.832c0 4.404-1.146 5.21-2.041 5.676-.502.25-.591.501-.358.985l.698 1.271c.215.501.465.59.967.358 1.88-.913 3.58-2.435 3.58-8.308v-1.88h2.92v9.31c0 .556.179.735.734.735h1.432c.555 0 .734-.18.734-.734v-11.245c0-.555-.179-.734-.734-.734zm4.732 4.548v3.617c0 2.972 1.898 4.817 5.282 4.817 3.402 0 5.3-1.845 5.3-4.817v-3.617c0-2.973-1.898-4.817-5.3-4.817-3.384 0-5.282 1.844-5.282 4.817zm7.664-.054v3.725c0 1.396-.86 2.095-2.382 2.095-1.504 0-2.363-.699-2.363-2.095v-3.725c0-1.396.859-2.095 2.363-2.095 1.522 0 2.382.699 2.382 2.095zm16.674-4.494h-7.359c-.555 0-.734.179-.734.734v3.832c0 3.742-.716 4.906-1.522 5.479h-.34c-.555 0-.734.197-.734.734v3.94c0 .555.179.734.734.734h1.396c.538 0 .717-.18.717-.735v-2.005h7.305v2.005c0 .556.18.735.716.735h1.397c.555 0 .734-.18.734-.735v-3.939c0-.537-.179-.734-.734-.734h-.86v-9.311c0-.555-.178-.734-.716-.734zm-5.282 2.668h3.098v7.377h-4.065c.591-1.093.967-2.758.967-5.497zm26.344-2.668h-1.557c-.878 0-1.11.053-1.433.608l-2.614 4.37c-.162-.018-.323-.018-.502-.018h-.16v-4.226c0-.555-.18-.734-.735-.734h-1.45c-.537 0-.734.179-.734.734v4.226h-.162c-.16 0-.304 0-.501.018l-2.596-4.37c-.34-.555-.573-.608-1.433-.608h-1.576c-.5 0-.59.322-.358.716l3.277 5.229c-.483.393-.86.93-1.217 1.629l-2.275 4.37c-.215.429-.143.769.395.769h1.432c.913 0 1.217-.108 1.486-.663l1.63-3.438c.393-.805.716-1.038 1.736-1.038h.162v4.405c0 .555.197.734.734.734h1.45c.555 0 .734-.18.734-.734v-4.405h.161c1.021 0 1.343.233 1.737 1.038l1.648 3.438c.25.555.555.663 1.468.663h1.432c.538 0 .609-.34.394-.77l-2.274-4.369c-.358-.698-.734-1.236-1.217-1.63l3.276-5.228c.269-.376.144-.716-.358-.716zm13.756 0h-1.521c-.376 0-.555.107-.699.34l-3.24 5.139c-.896 1.45-1.2 2.095-1.756 3.653h-.107c.448-1.737.573-2.292.573-4.333v-4.065c0-.555-.197-.734-.734-.734h-1.45c-.538 0-.735.179-.735.734v11.245c0 .555.197.734.734.734h1.523c.358 0 .554-.09.698-.34l3.277-5.229c.913-1.45 1.163-2.005 1.718-3.563h.108c-.412 1.755-.573 2.256-.573 4.333v4.065c0 .555.197.734.734.734h1.45c.538 0 .735-.18.735-.734v-11.245c0-.555-.197-.734-.735-.734zm4.714 4.548v3.617c0 2.972 1.898 4.817 5.283 4.817 2.65 0 4.315-1.075 5.013-3.009.197-.501.054-.752-.448-.931l-1.378-.483c-.502-.197-.734-.072-.931.447-.34.878-1.057 1.308-2.256 1.308-1.558 0-2.364-.717-2.364-2.131v-3.653c0-1.415.805-2.131 2.364-2.131 1.2 0 1.915.43 2.256 1.307.197.52.394.61.93.448l1.38-.483c.5-.18.644-.43.447-.932-.698-1.933-2.363-3.008-5.013-3.008-3.385 0-5.283 1.844-5.283 4.817z" style="fill:#1b1918;fill-rule:evenodd" transform="translate(-493.596 -159.865)"/>
  <path d="M547.889 219.786v-17.415c-.357-6.227-4.107-10.465-9.145-10.606l-19.577.008v17.415c.357 6.227 4.107 10.465 9.145 10.606zM529.107 185.877V169.71c.331-5.78 3.812-9.714 8.489-9.846l18.172.007v16.166c-.331 5.78-3.812 9.714-8.489 9.846zM524.474 185.88v-9.89c-.203-3.536-2.332-5.942-5.193-6.022l-11.116.004v9.889c.202 3.536 2.332 5.942 5.192 6.022zM514.658 212.509v-12.771c-.261-4.567-3.011-7.674-6.706-7.778l-14.356.006v12.771c.262 4.567 3.012 7.674 6.706 7.778zM514.658 218.499v8.618c-.176 3.081-2.032 5.178-4.525 5.248l-9.687-.004v-8.618c.176-3.081 2.032-5.178 4.525-5.248zM536.233 225.565v10.31c-.211 3.686-2.431 6.194-5.414 6.278l-11.589-.005v-10.31c.211-3.686 2.431-6.194 5.414-6.278zM578.231 165.365v10.564c-.216 3.777-2.491 6.348-5.547 6.434l-11.876-.005v-10.565c.217-3.777 2.491-6.347 5.548-6.433zM591.945 173.965v5.22c-.107 1.866-1.23 3.135-2.74 3.178l-5.867-.002v-5.22c.107-1.866 1.23-3.135 2.74-3.178z" style="fill:#2fa729;fill-rule:evenodd" transform="translate(-493.596 -159.865)"/>
</svg>
